<svg width="96" height="96" xmlns="http://www.w3.org/2000/svg" xmlns:xlink="http://www.w3.org/1999/xlink" xml:space="preserve" overflow="hidden"><g transform="translate(-80 -421)"><path d="M110.318 493.2 108.559 497.443C108.224 497.479 107.896 497.559 107.583 497.682 105.628 498.473 104.684 500.699 105.475 502.655 106.267 504.61 108.493 505.553 110.448 504.762 112.403 503.971 113.347 501.745 112.556 499.79 112.46 499.553 112.341 499.327 112.2 499.114L115.182 491.914C113.523 492.384 111.902 492.813 110.318 493.2Z" fill="#C55A11"/><path d="M163.009 475.628C162.699 475.758 162.407 475.928 162.142 476.135L157.164 473.978C155.78 474.811 154.342 475.64 152.85 476.467L160.691 479.867C160.736 480.106 160.803 480.34 160.891 480.567 161.672 482.515 163.884 483.461 165.832 482.68 167.78 481.899 168.726 479.687 167.945 477.739 167.164 475.792 164.954 474.845 163.006 475.625Z" fill="#C55A11"/><path d="M172.638 452.083C170.29 446.337 158.006 447.383 144.763 450.797 136.669 440.804 122.006 439.265 112.013 447.36 106.014 452.219 102.814 459.734 103.468 467.426 100.055 469.331 96.7496 471.424 93.568 473.695 85.233 479.726 81.8 484.724 83.362 488.548 84.48 491.286 87.845 492.661 93.4 492.661 95.9625 492.631 98.5194 492.413 101.05 492.009 110.087 490.65 121.437 487.3 133.009 482.573 144.581 477.846 155.031 472.293 162.434 466.937 170.767 460.905 174.2 455.908 172.638 452.083ZM89.867 487.381C88.553 487.76 87.316 487.47 87.104 486.734 86.892 485.998 87.785 485.094 89.104 484.716 90.423 484.338 91.656 484.627 91.868 485.363 92.08 486.099 91.182 487 89.867 487.381ZM119.378 447.6C129.237 443.573 140.494 448.3 144.521 458.158 144.522 458.159 144.522 458.159 144.522 458.16 145.012 459.36 144.587 460.834 143.26 462.546 137.929 469.424 121.406 476.165 112.79 474.992 110.643 474.698 109.307 473.942 108.817 472.745 104.803 462.885 109.527 451.637 119.378 447.6ZM132.3 479.449C131.014 479.913 129.76 479.706 129.5 478.986 129.24 478.266 130.071 477.305 131.358 476.84 132.645 476.375 133.898 476.582 134.158 477.302 134.418 478.022 133.587 478.983 132.3 479.449ZM166.866 455.363C165.552 455.742 164.314 455.452 164.102 454.716 163.89 453.98 164.784 453.076 166.102 452.698 167.42 452.32 168.653 452.609 168.866 453.345 169.079 454.081 168.18 454.984 166.866 455.363Z" fill="#C55A11"/><path d="M112.461 466.393 112.522 466.393C113.328 466.394 113.99 465.757 114.022 464.952 114.14 462.172 115.163 459.506 116.935 457.361 117.468 456.727 117.387 455.781 116.753 455.247 116.119 454.714 115.173 454.796 114.639 455.43 114.634 455.435 114.63 455.441 114.625 455.447 112.434 458.1 111.17 461.396 111.025 464.833 110.991 465.66 111.634 466.358 112.461 466.393Z" fill="#C55A11"/></g></svg>